<?xml version="1.0" encoding="UTF-8" ?>
<!DOCTYPE svg PUBLIC "-//W3C//DTD SVG 1.1//EN" "http://www.w3.org/Graphics/SVG/1.1/DTD/svg11.dtd">
<svg width="512pt" height="512pt" viewBox="0 0 512 512" version="1.1" xmlns="http://www.w3.org/2000/svg">
<g id="#000000ff">
<path fill="#000000" opacity="1.00" d=" M 128.59 32.78 C 136.01 31.78 143.51 32.02 150.98 32.00 C 218.30 32.00 285.62 32.00 352.94 32.00 C 365.97 32.13 379.20 31.23 392.00 34.26 C 416.95 39.60 439.45 55.41 452.86 77.13 C 459.48 87.72 463.94 99.65 465.94 111.98 C 467.36 120.33 467.27 128.83 467.66 137.26 C 470.74 219.49 473.84 301.71 476.91 383.94 C 478.29 428.39 443.50 470.63 399.86 478.52 C 390.34 480.42 380.61 479.95 370.96 480.00 C 290.99 479.99 211.01 480.02 131.03 479.99 C 112.55 479.97 94.11 474.45 78.70 464.24 C 58.09 450.78 42.95 429.18 37.57 405.13 C 35.45 395.94 34.89 386.45 35.33 377.04 C 38.51 292.72 41.65 208.40 44.84 124.07 C 45.56 101.80 54.39 79.89 69.47 63.46 C 84.70 46.64 106.07 35.56 128.59 32.78 M 130.53 64.79 C 116.47 67.00 103.18 74.02 93.57 84.55 C 83.20 95.74 77.20 110.77 76.75 126.00 C 73.59 211.67 70.40 297.34 67.24 383.01 C 66.83 399.60 73.47 416.13 84.96 428.06 C 96.79 440.57 113.79 448.06 131.05 447.99 C 215.04 448.01 299.03 447.99 383.02 448.00 C 388.91 448.04 394.83 447.28 400.48 445.58 C 428.60 437.27 447.38 407.81 446.33 379.02 C 443.14 294.34 439.99 209.66 436.80 124.98 C 436.13 107.80 428.60 90.78 415.47 79.51 C 403.62 69.04 387.70 63.84 372.00 64.01 C 295.34 63.98 218.68 64.01 142.02 64.00 C 138.17 63.99 134.33 64.19 130.53 64.79 Z" />
<path fill="#000000" opacity="1.00" d=" M 155.40 96.54 C 161.84 94.93 169.64 96.76 173.38 102.60 C 175.44 105.64 176.03 109.38 176.03 112.98 C 176.14 129.35 181.31 145.68 190.90 158.98 C 200.06 171.83 213.22 181.79 228.09 187.13 C 248.59 194.58 272.12 193.45 291.72 183.81 C 305.08 177.33 316.51 166.93 324.24 154.25 C 331.81 141.92 335.83 127.49 335.97 113.04 C 335.96 109.40 336.53 105.61 338.65 102.55 C 344.62 93.52 360.28 93.79 365.76 103.21 C 368.65 107.94 368.00 113.69 367.76 118.97 C 366.35 144.34 355.99 169.12 338.78 187.83 C 321.53 206.81 297.49 219.41 272.08 222.85 C 243.53 226.99 213.43 219.85 190.08 202.83 C 160.67 181.94 142.90 145.92 144.13 109.88 C 144.51 103.60 149.19 97.85 155.40 96.54 Z" />
</g>
</svg>
