<?xml version="1.0" encoding="UTF-8" ?>
<!DOCTYPE svg PUBLIC "-//W3C//DTD SVG 1.1//EN" "http://www.w3.org/Graphics/SVG/1.1/DTD/svg11.dtd">
<svg width="512pt" height="512pt" viewBox="0 0 512 512" version="1.1" xmlns="http://www.w3.org/2000/svg">
<g id="#000000ff">
<path fill="#000000" opacity="1.00" d=" M 40.53 0.00 L 135.52 0.00 C 144.89 0.40 154.24 3.52 161.40 9.70 C 169.48 16.45 174.88 26.41 175.81 36.92 C 176.94 48.93 176.35 61.07 178.14 73.02 C 179.10 82.12 180.33 91.18 182.40 100.09 C 184.36 112.20 188.59 123.75 191.55 135.62 C 194.22 146.54 192.12 158.52 185.91 167.89 C 169.73 188.55 154.14 209.70 138.41 230.71 C 143.65 239.20 148.13 248.15 153.47 256.58 C 157.91 263.15 162.14 269.86 166.68 276.36 C 171.29 282.41 176.01 288.38 180.67 294.39 C 191.86 307.80 204.24 320.21 217.72 331.32 C 223.93 336.09 230.03 341.02 236.32 345.70 C 243.08 350.28 249.90 354.77 256.72 359.27 C 264.85 364.19 273.23 368.70 281.41 373.54 C 300.63 359.08 319.86 344.63 338.99 330.05 C 348.65 321.13 362.80 317.83 375.55 320.49 C 387.37 323.39 398.84 327.69 410.87 329.69 C 419.49 331.56 428.17 333.09 436.95 333.89 C 449.50 335.90 462.24 335.31 474.86 336.42 C 487.83 337.53 499.92 345.37 506.37 356.66 C 509.98 362.65 511.54 369.62 512.00 376.55 L 512.00 471.43 C 511.58 481.32 508.02 491.14 501.23 498.44 C 493.74 506.87 482.68 511.59 471.48 512.00 L 468.42 512.00 C 442.88 511.56 417.32 509.70 392.14 505.29 C 320.86 493.35 252.52 464.44 194.19 421.77 C 142.29 384.06 98.26 335.59 65.56 280.40 C 32.22 224.25 10.82 161.03 3.32 96.15 C 1.12 78.75 0.43 61.20 0.00 43.68 L 0.00 40.58 C 0.41 30.25 4.32 19.99 11.69 12.62 C 19.12 4.72 29.77 0.41 40.53 0.00 Z" />
</g>
</svg>
