<?xml version="1.0" encoding="UTF-8" ?>
<!DOCTYPE svg PUBLIC "-//W3C//DTD SVG 1.1//EN" "http://www.w3.org/Graphics/SVG/1.1/DTD/svg11.dtd">
<svg width="512pt" height="512pt" viewBox="0 0 512 512" version="1.1" xmlns="http://www.w3.org/2000/svg">
<g id="#000000ff">
<path fill="#000000" opacity="1.00" d=" M 124.14 80.16 C 134.13 76.17 145.75 76.88 155.33 81.69 C 162.05 84.92 167.55 90.25 171.70 96.39 C 183.70 113.67 195.89 130.83 207.78 148.19 C 218.02 163.66 215.25 186.05 201.54 198.55 C 194.74 204.45 186.96 209.12 179.67 214.39 C 199.53 243.58 223.56 269.73 249.38 293.71 C 264.58 307.65 280.54 320.81 297.66 332.33 C 301.86 326.32 305.98 320.26 310.28 314.32 C 316.94 305.18 327.65 299.12 338.93 298.20 C 348.29 297.25 357.87 299.95 365.54 305.34 C 382.88 317.45 400.24 329.53 417.54 341.68 C 428.12 349.15 434.83 361.93 434.46 374.93 C 434.14 385.57 429.18 395.50 423.15 404.03 C 413.64 418.31 397.98 427.66 381.48 431.61 C 359.94 436.81 337.31 434.29 316.12 428.63 C 280.51 418.91 247.90 400.42 218.30 378.67 C 178.51 348.76 143.66 312.03 116.95 269.96 C 98.99 241.24 84.33 209.72 79.13 176.01 C 75.85 154.17 77.05 130.62 87.98 110.96 C 95.71 96.67 109.10 85.96 124.14 80.16 Z" />
</g>
</svg>
